#N canvas 0 22 1263 713 12;
#X obj 122 107 udpreceive 9001;
#X obj 122 131 unpackOSC;
#X floatatom 122 221 5 0 0 0 - - -;
#X obj 122 179 routeOSC /val1;
#X obj 180 371 osc~;
#X obj 180 395 dac~;
#N canvas 0 22 450 278 (subpatch) 0;
#X array sample1 10510 float 0;
#X coords 0 1 10509 -1 200 140 1;
#X restore 711 59 graph;
#X obj 601 347 *~;
#X obj 718 300 vsl 15 128 0 1 0 0 empty empty empty 0 -9 0 10 -262144
-1 -1 0 1;
#X obj 628 295 soundfiler;
#X floatatom 641 244 5 0 0 0 - - -;
#X obj 576 115 bng 15 250 50 0 empty empty empty 17 7 0 10 -262144
-1 -1;
#X msg 628 269 read -resize WAVs/au_\$1.wav sample1;
#X obj 601 191 t b b;
#X obj 601 321 tabplay~ sample1;
#X obj 576 88 metro;
#X obj 576 63 tgl 15 0 empty empty empty 17 7 0 10 -262144 -1 -1 0
1;
#X floatatom 603 62 5 0 0 0 - - -;
#X obj 628 218 random 61;
#X obj 576 166 select 0;
#X obj 576 140 random 10;
#X obj 576 192 bng 15 250 50 0 empty empty empty 17 7 0 10 -262144
-1 -1;
#X floatatom 895 472 0 0 0 0 - - -;
#X obj 895 520 line~;
#X obj 895 496 pack 0 100;
#X floatatom 820 442 0 0 0 0 - - -;
#X floatatom 871 640 0 0 0 0 - - -;
#X obj 871 712 line~;
#X obj 871 688 pack 0 100;
#X obj 871 664 * 0.01;
#X obj 740 648 +~;
#X obj 853 740 *~;
#X obj 820 553 *~;
#X obj 820 466 / 100;
#X obj 740 672 hip~ 5;
#X obj 820 514 +~ 1;
#X obj 820 490 osc~ 0;
#X obj 820 577 +~ 1.46;
#X obj 820 601 vd~ G03-del;
#X obj 853 788 delwrite~ G03-del 1000;
#X obj 853 764 clip~ -1 1;
#X text 862 441 <= cycle frequency (hundredths);
#X text 948 473 <= cycle depth (msec);
#X text 912 638 <= feedback (hundredths);
#X connect 0 0 1 0;
#X connect 1 0 3 0;
#X connect 2 0 4 0;
#X connect 3 0 2 0;
#X connect 4 0 5 0;
#X connect 4 0 5 1;
#X connect 7 0 5 0;
#X connect 7 0 5 1;
#X connect 8 0 7 1;
#X connect 11 0 20 0;
#X connect 12 0 9 0;
#X connect 13 0 14 0;
#X connect 13 1 18 0;
#X connect 14 0 7 0;
#X connect 15 0 11 0;
#X connect 16 0 15 0;
#X connect 17 0 15 1;
#X connect 18 0 10 0;
#X connect 18 0 12 0;
#X connect 19 0 13 0;
#X connect 19 0 21 0;
#X connect 20 0 19 0;
#X connect 22 0 24 0;
#X connect 23 0 32 1;
#X connect 24 0 23 0;
#X connect 25 0 33 0;
#X connect 26 0 29 0;
#X connect 27 0 31 1;
#X connect 28 0 27 0;
#X connect 29 0 28 0;
#X connect 30 0 34 0;
#X connect 31 0 40 0;
#X connect 32 0 37 0;
#X connect 33 0 36 0;
#X connect 34 0 31 0;
#X connect 35 0 32 0;
#X connect 36 0 35 0;
#X connect 37 0 38 0;
#X connect 38 0 30 1;
#X connect 40 0 39 0;
